<?xml version="1.0" encoding="UTF-8" standalone="no"?>
<!-- Created with Inkscape (http://www.inkscape.org/) -->

<svg
   xmlns:dc="http://purl.org/dc/elements/1.1/"
   xmlns:cc="http://creativecommons.org/ns#"
   xmlns:rdf="http://www.w3.org/1999/02/22-rdf-syntax-ns#"
   xmlns:svg="http://www.w3.org/2000/svg"
   xmlns="http://www.w3.org/2000/svg"
   xmlns:sodipodi="http://sodipodi.sourceforge.net/DTD/sodipodi-0.dtd"
   xmlns:inkscape="http://www.inkscape.org/namespaces/inkscape"
   id="svg4027"
   version="1.1"
   inkscape:version="0.48.2 r9819"
   width="206"
   height="215.13448"
   sodipodi:docname="Allah.svg">
  <metadata
     id="metadata4033">
    <rdf:RDF>
      <cc:Work
         rdf:about="">
        <dc:format>image/svg+xml</dc:format>
        <dc:type
           rdf:resource="http://purl.org/dc/dcmitype/StillImage" />
      </cc:Work>
    </rdf:RDF>
  </metadata>
  <defs
     id="defs4031" />
  <sodipodi:namedview
     pagecolor="#ffffff"
     bordercolor="#666666"
     borderopacity="1"
     objecttolerance="10"
     gridtolerance="10"
     guidetolerance="10"
     inkscape:pageopacity="0"
     inkscape:pageshadow="2"
     inkscape:window-width="1024"
     inkscape:window-height="749"
     id="namedview4029"
     showgrid="false"
     fit-margin-top="0"
     fit-margin-left="0"
     fit-margin-right="0"
     fit-margin-bottom="0"
     inkscape:zoom="2.528651"
     inkscape:cx="103"
     inkscape:cy="107.56724"
     inkscape:window-x="-4"
     inkscape:window-y="-4"
     inkscape:window-maximized="1"
     inkscape:current-layer="svg4027" />
  <path
     sodipodi:nodetypes="ssssccss"
     inkscape:connector-curvature="0"
     id="path4084"
     d="m 176.78327,148.87965 c -1.72734,-2.08131 -1.90828,-5.43223 -0.57184,-10.58976 1.43795,-5.54923 3.55172,-10.3357 4.25416,-9.63326 0.22912,0.22912 -0.61331,3.20313 -1.26648,5.92515 -2.03477,8.4796 0.5149,13.25952 3.39873,8.11459 1.72926,-3.19236 1.42391,-1.85622 1.42017,1.01357 -0.003,1.82137 -0.9436,3.75735 -1.49167,4.5943 -1.60861,2.4566 -4.48785,2.08787 -5.74307,0.57541 z"
     style="fill:#009900;fill-opacity:1" />
  <path
     style="fill:#009900;fill-opacity:1"
     d="m 136.48582,157.70116 c -1.72733,-2.08132 -1.90828,-5.43225 -0.57183,-10.58977 1.43795,-5.54923 3.55171,-10.3357 4.25415,-9.63326 0.22912,0.22912 -0.6133,3.20313 -1.26647,5.92515 -2.03478,8.4796 0.5149,13.25953 3.39872,8.11459 1.72926,-3.19236 1.42391,-1.85622 1.42018,1.01358 -0.003,1.82136 -0.94361,3.75734 -1.49167,4.59429 -1.60861,2.45659 -4.48785,2.08787 -5.74308,0.57542 z"
     id="path4071"
     inkscape:connector-curvature="0"
     sodipodi:nodetypes="ssssccss" />
  <path
     sodipodi:nodetypes="ssssccss"
     inkscape:connector-curvature="0"
     id="path4069"
     d="m 84.758471,165.04859 c -1.727337,-2.08133 -1.908284,-5.43225 -0.571833,-10.58977 1.43795,-5.54923 3.551708,-10.3357 4.254153,-9.63326 0.22912,0.22911 -0.613303,3.20313 -1.266482,5.92514 -2.034772,8.4796 0.514901,13.25953 3.398732,8.1146 1.729261,-3.19236 1.423909,-1.85623 1.420176,1.01358 -0.0025,1.82136 -0.943609,3.75733 -1.491665,4.59429 -1.608615,2.45659 -4.48786,2.08787 -5.743081,0.57542 z"
     style="fill:#009900;fill-opacity:1" />
  <path
     style="fill:#009900;fill-opacity:1"
     d="m 20.709446,168.92386 c -1.727338,-2.08132 -1.908284,-5.43224 -0.571835,-10.58977 1.437951,-5.54923 3.55171,-10.3357 4.254154,-9.63326 0.22912,0.22912 -0.613302,3.20314 -1.266482,5.92515 -2.034773,8.4796 0.514901,13.25953 3.398733,8.11459 1.729263,-3.19235 1.423907,-1.85622 1.420176,1.01359 -0.0024,1.82136 -0.943609,3.75733 -1.491663,4.59429 -1.608618,2.45659 -4.487862,2.08786 -5.743083,0.57541 z"
     id="path4061"
     inkscape:connector-curvature="0"
     sodipodi:nodetypes="ssssccss" />
  <path
     inkscape:connector-curvature="0"
     style="fill:#009900;fill-opacity:1"
     d="m 46.834848,86.703377 c -0.29009,0.0047 -0.590341,0.02363 -0.93138,0.05175 -2.433312,0.200595 -3.19516,0.635179 -3.337444,1.914503 -0.101286,0.910688 -0.444203,3.470017 -0.750279,5.691767 -0.453599,3.2926 -0.296107,4.1831 0.827894,4.81213 0.758443,0.42444 1.170994,1.122743 0.905508,1.552293 -0.922395,1.49248 -10.198211,7.36072 -17.489247,11.07308 -5.553949,2.82789 -6.618453,3.61518 -4.424055,3.25983 7.971581,-1.29087 16.749376,-5.5193 22.327248,-10.73674 3.061672,-2.86383 4.546314,-3.64791 6.778377,-3.64791 3.598414,0 4.838001,-1.231343 4.838001,-4.812123 0,-2.19071 -0.730491,-3.57637 -3.259829,-6.105714 -2.476311,-2.4763 -3.45416,-3.087883 -5.484794,-3.052855 z m -1.267688,5.11641 c 0.580395,0.0709 1.112348,0.58894 1.481162,1.55006 0.341504,0.88995 0.250477,1.85309 -0.206674,2.13562 -1.374194,0.8493 -3.811812,-1.19575 -2.996769,-2.51453 0.526473,-0.85184 1.141885,-1.24199 1.722281,-1.17115 z m 4.649033,1.31018 c 0.107203,-0.0162 0.212942,-0.008 0.323304,0 0.686699,0.0496 1.416919,0.59086 1.810502,1.61653 0.345386,0.90005 0.614278,1.83117 0.614278,2.06914 0,0.23797 -0.931116,0.42029 -2.069145,0.42029 -1.379431,0 -2.069145,-0.68972 -2.069145,-2.06914 0,-1.20844 0.639749,-1.92296 1.390206,-2.03682 z"
     id="path4053"
     sodipodi:nodetypes="cssssssssssscccssscccssssc" />
  <path
     style="fill:#009900;fill-opacity:1"
     d="m 101.64266,91.892447 c -2.269551,-2.269535 -3.452495,-9.142813 -2.619509,-15.220109 0.574978,-4.194926 0.314762,-4.152434 -2.488153,0.406252 -2.688883,4.373224 -2.532505,1.285518 0.210651,-4.159318 2.590294,-5.141426 5.308351,-9.409234 6.050121,-8.87233 0.91789,0.664384 0.0332,4.881661 -0.19425,10.036108 -0.46484,10.533645 0.65939,12.317012 4.05623,12.317012 1.15227,0 2.90878,-0.433407 3.90336,-0.963118 4.16385,-2.21768 4.71417,-5.118008 2.58334,-13.614523 -1.2271,-4.892921 -1.21127,-5.325394 0.30319,-8.277367 1.58559,-3.090637 1.6058,-3.100036 2.61398,-1.216233 0.55881,1.044161 1.53541,5.117724 2.17021,9.052366 1.47414,9.137148 2.5055,11.594178 5.14473,12.256585 1.58979,0.399014 3.02912,0.402396 4.17436,-1.011895 1.94286,-2.399322 1.35821,-5.0759 -0.69352,-10.913435 -1.56733,-4.459347 -1.58382,-4.900497 -0.30784,-8.241544 0.74145,-1.941502 1.62099,-3.361353 1.95451,-3.155225 1.48769,0.91944 3.48922,10.158208 3.55424,16.844052 0.059,6.073934 -0.35182,8.479953 -1.55977,10.628081 -2.98206,5.303101 -9.08494,4.603911 -12.40678,-0.32537 l -1.77998,-2.641298 -1.50171,3.330205 c -2.54514,5.644114 -9.33523,7.573294 -13.16741,3.741104 z"
     id="path4047"
     inkscape:connector-curvature="0"
     sodipodi:nodetypes="sssssssssssssssssssscss" />
  <path
     inkscape:connector-curvature="0"
     style="fill:#009900;fill-opacity:1"
     d="m 66.519539,71.500302 c 1.022947,-1.820086 2.630132,-3.993051 3.57152,-4.828797 C 71.032447,65.83575 81.116473,61.762786 92.500006,57.620464 147.66192,37.547756 147.89272,37.457238 150.73839,34.779313 l 2.76953,-2.606263 -1.33366,3.311573 c -0.73351,1.821364 -2.18088,4.056677 -3.21638,4.96736 -1.0355,0.910682 -19.13511,7.98917 -40.22137,15.729973 C 81.193075,66.2932 69.67949,70.897209 67.846564,72.53285 c -1.403222,1.252189 -2.694326,2.276705 -2.869121,2.276705 -0.174794,0 0.519149,-1.489167 1.542096,-3.309253 z"
     id="path4045" />
  <path
     inkscape:connector-curvature="0"
     style="fill:#009900;fill-opacity:1"
     d="m 155.7141,73.560567 c -1.1967,-3.727356 -3.04283,-6.002225 -4.871,-6.002225 -2.80975,0 -5.12954,-2.506347 -4.86279,-5.253864 0.52883,-5.447315 6.29055,-3.209461 9.3808,3.643518 0.81005,1.796374 1.71426,3.266132 2.00934,3.266132 0.29509,0 0.99719,-2.230317 1.56022,-4.956261 1.25319,-6.06741 4.22352,-10.005679 6.50148,-8.620132 0.90259,0.548989 1.60121,2.113596 1.75593,3.932493 0.28331,3.330726 0.0847,3.495831 -2.38833,1.985887 -2.37888,-1.452419 -3.43257,0.223484 -5.31071,8.446688 -0.8369,3.664297 -1.80436,6.662368 -2.1499,6.662368 -0.34554,0 -1.07681,-1.397075 -1.62504,-3.104604 z"
     id="path4043" />
  <path
     inkscape:connector-curvature="0"
     style="fill:#009900;fill-opacity:1"
     d="m 38.734576,53.387132 c 2.801853,-1.400494 6.341096,-3.612935 7.864986,-4.916539 l 2.77071,-2.370186 -5.953367,-0.03365 c -3.274352,-0.0185 -6.183617,0.338907 -6.465033,0.794248 -0.281417,0.45534 -0.862231,0.827893 -1.2907,0.827893 -1.319107,0 -0.865554,-2.150391 0.936841,-4.441764 1.623237,-2.063612 2.112269,-2.181383 9.057967,-2.181383 4.118271,0 7.57224,0.372387 7.866242,0.848093 0.920701,1.489723 -0.463483,5.586317 -2.614257,7.737091 -2.308889,2.30889 -12.012548,6.326527 -15.215495,6.299721 -1.541201,-0.0129 -0.783747,-0.65119 3.042106,-2.563528 z"
     id="path4041" />
  <path
     style="fill:#009900;fill-opacity:1"
     d="M 99.44583,6.7096501 102.17118,0 c 6.9466,6.5694421 15.324,21.023594 9.14094,44.474842 1.24293,-19.150404 -1.2554,-28.913064 -11.86629,-37.7651919 z"
     id="path4037"
     inkscape:connector-curvature="0"
     sodipodi:nodetypes="cccc" />
  <path
     style="fill:#009900;fill-opacity:1"
     d="M 18.995985,210.72322 C 4.871341,203.58658 -3.6468104,175.33496 1.5672773,150.45282 c 0.8687466,-4.14576 2.3067654,-12.0473 4.0513499,-11.98728 1.2762278,0.0439 -0.4379092,9.33691 -0.8631582,12.33213 -2.6844438,18.90776 0.6194104,34.76854 9.080581,43.59909 11.441525,11.94105 17.402331,4.59832 25.810461,-31.79425 5.21973,-22.59237 8.8074,-32.59862 14.560189,-40.60921 5.978644,-8.32512 12.069498,-10.36194 12.058319,-4.0324 -0.0024,1.45334 -1.420306,9.69776 -3.150553,18.32095 -5.695803,28.38691 -3.987049,43.38284 5.936192,52.09547 5.572462,4.8926 11.0554,6.43024 18.181868,5.09886 7.513777,-1.40372 11.584345,-3.6897 16.748324,-9.40562 5.79969,-6.41954 8.04363,-11.00523 9.41308,-19.23628 1.23883,-7.44606 -0.29014,-29.54109 -3.06014,-44.22181 l -1.59118,-8.43312 3.96798,-7.84843 c 3.84463,-7.604453 4.00906,-7.754693 5.28926,-4.833313 3.4241,7.813653 5.19339,19.086353 6.20742,39.549483 1.12455,22.69353 2.16486,28.94776 6.09728,36.65593 5.1567,10.10798 17.05871,14.35589 28.249,10.08227 5.10491,-1.94958 5.40542,-2.32151 5.40542,-6.69041 0,-2.54433 -1.91597,-10.73688 -4.25766,-18.20568 -2.34172,-7.4688 -5.63164,-20.36541 -7.31093,-28.65912 -1.67929,-8.29373 -3.55873,-16.02399 -4.17652,-17.17836 -0.8127,-1.51853 -0.0982,-4.37592 2.58406,-10.33402 l 3.70735,-8.235183 2.7013,3.36642 c 3.92908,4.896543 12.90884,22.589493 12.116,23.872353 -0.37346,0.60428 -2.31607,0.24638 -4.33809,-0.79922 -2.01397,-1.04147 -3.82609,-1.71788 -4.02693,-1.50314 -0.20084,0.21472 2.29183,9.28109 5.53926,20.14747 6.62382,22.16423 7.0806,27.43761 3.40691,39.33167 -3.50104,11.335 -7.24166,17.51596 -13.14224,21.716 -4.1931,2.98465 -6.18098,3.59216 -11.35396,3.4698 -7.82572,-0.18507 -14.91864,-3.68092 -19.40645,-9.56474 -3.67882,-4.82318 -7.87165,-16.73027 -7.87165,-22.35445 0,-5.72831 -1.74724,-4.01119 -3.47344,3.41357 -4.30565,18.51965 -15.587661,31.21313 -30.383367,34.18453 -9.707383,1.94952 -15.941575,-0.029 -22.978689,-7.29248 -3.544469,-3.65852 -6.320798,-7.99231 -7.613661,-11.88476 -3.525968,-10.61571 -2.478654,-30.75861 2.503994,-48.15889 0.996575,-3.48024 1.629975,-7.55063 1.407533,-9.0453 -0.316043,-2.12369 -1.250446,-1.00438 -4.275558,5.12163 -3.902892,7.90361 -7.089517,18.46678 -12.915874,42.81413 -4.075851,17.03231 -7.874133,24.99988 -12.558078,27.65347 -3.444734,1.95154 -4.644757,1.87551 -8.846295,-0.24736 z"
     id="path4969"
     inkscape:connector-curvature="0"
     sodipodi:nodetypes="ssssssscsssssscsssssssssscscscssssssssssssssss" />
  <path
     style="fill:#009900;fill-opacity:1"
     d="m 198.43105,211.15118 c 0.85016,-23.53286 -1.89575,-47.81484 -11.19852,-99.0294 -2.4406,-13.435923 -6.83868,-38.901097 -9.77356,-56.589258 -2.93488,-17.688157 -5.86191,-32.578455 -6.50453,-33.089547 -1.23919,-0.985568 3.19116,-17.0691279 4.7508,-17.2469289 1.21187,-0.138154 15.41724,27.0609399 17.71979,33.9281749 1.05031,3.132471 1.5976,6.087746 1.2162,6.56728 -0.38138,0.479537 -2.6595,-0.90159 -5.06248,-3.069171 l -4.36902,-3.941052 1.05283,9.513887 c 0.57908,5.232637 4.24755,26.490734 8.15221,47.240212 8.00894,42.559693 12.33663,76.570173 11.47767,90.200703 -0.71838,11.39995 -3.21738,23.17006 -5.67068,26.70827 l -1.93462,2.79013 0.14395,-3.9833 z"
     id="path4963"
     inkscape:connector-curvature="0" />
</svg>
